PathFileType	4	(X/Y/Z)	OpenSim_Sub07_CSStiffKnee_Gyro.trc
DataRate	CameraRate	NumFrames	NumMarkers	Units	OrigDataRate	OrigDataStartFrame	OrigNumFrames
100	100	30	8	m	100	5051	6734
Frame#	Time	torso_imu_offset_imu	pelvis_imu_offset_imu	tibia_r_imu_offset_imu	femur_r_imu_offset_imu	tibia_l_imu_offset_imu	femur_l_imu_offset_imu	toes_r_imu_offset_imu	toes_l_imu_offset_imu
				X1	Y1	Z1	X2	Y2	Z2	X3	Y3	Z3	X4	Y4	Z4	X5	Y5	Z5	X6	Y6	Z6	X7	Y7	Z7	X8		Y8	Z8	

5051	50.50000000	0.45465223	0.02137610	-0.25580022	-0.48077769	-0.06622415	-0.06233049	-0.44510054	-1.13701815	-2.52447642	0.41198541	0.00522460	2.29923909	0.47950314	-0.01540783	0.93281661	0.48785485	-0.45629830	0.69659615	0.04316359	-5.30269430	-0.37809971	-0.02835877	-0.07822327	0.04328532
5052	50.51000000	0.44912118	0.02983022	-0.24982524	-0.45328329	-0.04664830	-0.07319566	0.19359073	-0.98038630	-2.52270603	0.46007960	-0.16513158	2.20722149	0.50772128	-0.01896508	0.83673854	0.54984551	-0.42879949	0.60657576	1.24703115	-5.02227196	-1.07327020	-0.04170128	-0.08492015	0.05164139
5053	50.52000000	0.43547394	0.02998625	-0.24077691	-0.40031856	-0.03239335	-0.07660318	0.77828519	-0.88382247	-2.40833544	0.29751398	-0.32662271	2.08999549	-0.03808884	-0.01896901	0.78267829	0.47069976	-0.37435778	0.55891454	1.83319340	-4.80781856	-1.46176042	-0.04681221	-0.11008577	0.04906826
5054	50.53000000	0.43325111	0.03043796	-0.22885686	-0.32362543	-0.01704254	-0.06615217	0.94470216	-0.87702079	-2.14132767	-0.05211447	-0.43507600	1.97122117	-0.11521565	-0.07331169	0.69111803	0.25477381	-0.30458085	0.55706192	2.38103053	-4.67564763	-1.70107651	-0.04456030	-0.13598479	0.02664298
5055	50.54000000	0.41965365	0.03004371	-0.20997419	-0.24269229	-0.00990021	-0.03055884	1.00169417	-0.87301594	-1.84012713	-0.47114864	-0.51568332	1.90229873	-0.10660999	-0.05835491	0.61817792	0.03433053	-0.24258465	0.57227868	2.81939219	-4.54540214	-1.77165533	0.04978685	-0.13991725	-0.01234723
5056	50.55000000	0.40603308	0.03079768	-0.18882664	-0.16994774	-0.00770142	0.02010970	1.10889307	-0.80798001	-1.50368489	-0.79404895	-0.63249096	1.85163089	-0.19512659	-0.03303047	0.69871109	-0.04305646	-0.21753474	0.56415499	2.29374815	-3.94038950	-1.73858792	0.06787129	-0.13992446	-0.04191649
5057	50.56000000	0.38484887	0.03309928	-0.17965797	-0.10670631	-0.01353756	0.08876146	0.88248145	-0.65070163	-1.17135717	-0.89433063	-0.75039042	1.78226765	-0.05941540	-0.03398442	0.70467521	0.00089481	-0.24864892	0.54523238	0.53924458	-2.27291926	-1.61061742	0.12611520	-0.14893856	-0.06543071
5058	50.57000000	0.36021569	0.04218110	-0.17882806	-0.05556784	-0.00697924	0.15783796	0.26953704	-0.47631093	-0.88605141	-0.83036636	-0.76348143	1.71374595	0.04423061	-0.01053438	0.66603061	0.08204018	-0.29638103	0.55660233	-0.67134681	-0.51051202	-1.48958368	0.08318807	-0.16516392	-0.06063060
5059	50.58000000	0.34186813	0.05177916	-0.17777028	-0.03005419	0.01204183	0.21513029	-0.37598275	-0.37945547	-0.66037698	-0.72172389	-0.70403623	1.62333942	0.18762838	0.00420510	0.62590599	0.14378076	-0.31621818	0.60050307	-1.49073315	0.47229927	-1.52118412	0.08568435	-0.16121321	-0.05489443
5060	50.59000000	0.32065222	0.05949525	-0.17986438	-0.01458072	0.02006704	0.26233292	-0.95702835	-0.37486320	-0.33234411	-0.60326171	-0.63740570	1.53617893	0.35825059	0.01458306	0.61557775	0.23038556	-0.29446226	0.62886660	-1.39586400	0.87916812	-1.57756226	0.10246333	-0.16489012	-0.05972499
5061	50.60000000	0.30285325	0.06555602	-0.17559523	-0.00940931	0.03661410	0.27852447	-1.51407694	-0.42278559	0.07795525	-0.51812125	-0.59541318	1.48543610	0.41934493	0.05204604	0.59871637	0.36850141	-0.26567744	0.60616058	-1.05126167	1.05120077	-1.59212928	0.10763345	-0.16079882	-0.06514362
5062	50.61000000	0.28687361	0.06528777	-0.16022382	-0.02528634	0.04869742	0.29415994	-1.97274713	-0.43355374	0.47888408	-0.34194715	-0.54742189	1.47261483	0.42789755	0.07861215	0.54866657	0.47252270	-0.24823263	0.59966256	-0.68425671	1.27640507	-1.49861211	0.07863682	-0.16496506	-0.06455713
5063	50.62000000	0.27299827	0.06121359	-0.14335969	-0.03232985	0.05644962	0.30491520	-2.09192315	-0.35082780	0.84994014	0.03977471	-0.42951318	1.48392786	0.40546349	0.06349829	0.50674245	0.54949857	-0.25117249	0.62544344	-0.49171993	1.58527293	-1.26501795	0.11412763	-0.16028387	-0.08299186
5064	50.63000000	0.26060894	0.06558515	-0.11792630	-0.03153103	0.06268163	0.30782666	-1.82632652	-0.16508945	1.17550157	0.56301119	-0.24113644	1.48121225	0.33003977	0.06200004	0.48451222	0.52537590	-0.26737073	0.64075695	-0.43918294	1.90212480	-0.94265045	0.13277380	-0.16636231	-0.09730293
5065	50.64000000	0.24684798	0.07116618	-0.08484582	-0.02293066	0.07124298	0.31006932	-1.36179769	0.04856969	1.45626203	1.10972053	-0.05741863	1.44616827	0.26625018	0.06151962	0.46622444	0.44403706	-0.28894285	0.62443443	-0.40472733	2.16668399	-0.60050248	0.14225585	-0.12354136	-0.10174634
5066	50.65000000	0.23680199	0.08380497	-0.05108061	-0.01629459	0.08999028	0.31476977	-0.89308475	0.26356045	1.69905130	1.54385332	0.05336984	1.38514535	0.25313505	0.05983261	0.44718093	0.33601317	-0.28664540	0.65786567	-0.31962290	2.35362963	-0.29489622	0.14680366	-0.15499621	-0.09184884
5067	50.66000000	0.22367272	0.09995861	-0.02387457	0.00819832	0.11980139	0.31327291	-0.51598551	0.47873040	1.92453842	1.78813893	0.09186569	1.31047758	0.23094876	0.07270253	0.40624131	0.24783361	-0.28431819	0.67367161	-0.20292265	2.49052018	-0.04161196	0.11384397	-0.13533779	-0.06192175
5068	50.67000000	0.20696317	0.11982545	-0.00665531	0.02857026	0.14590006	0.30654458	-0.19076157	0.66456820	2.14919736	1.86237664	0.09357199	1.22410688	0.19530739	0.09898926	0.41224924	0.16684648	-0.30312448	0.64952722	-0.12256029	2.60925923	0.17804160	0.09246416	-0.11739357	-0.02706401
5069	50.68000000	0.18714991	0.13557314	0.00065086	0.04565473	0.16857408	0.29350288	0.13401947	0.81080287	2.39455803	1.76672801	0.07009993	1.12920126	0.23246076	0.09924784	0.41711161	0.13199210	-0.29985689	0.68299477	-0.13977410	2.74747501	0.36760414	0.07641526	-0.07721418	0.00152971
5070	50.69000000	0.16884226	0.14990463	-0.00174750	0.06476621	0.17766943	0.28407293	0.49320255	0.94527961	2.59031816	1.52457519	0.01402782	1.04994350	0.17193630	0.08050135	0.40567736	0.12294827	-0.32311212	0.69235821	-0.22765290	2.91371232	0.51276991	0.07731237	-0.09876525	0.02584013
5071	50.70000000	0.14466531	0.16388756	-0.00080232	0.07977439	0.19531761	0.28883261	0.87954879	1.08653901	2.70719629	1.20002933	-0.09028699	0.96436434	0.09524638	0.07380953	0.39260727	0.06882612	-0.33481162	0.70021038	-0.31561249	3.13689913	0.60144863	0.05562772	-0.10071659	0.04477041
5072	50.71000000	0.13043103	0.17696901	-0.00622196	0.08740593	0.20598412	0.26789009	1.22936668	1.21026047	2.79048952	0.87377868	-0.20458939	0.87739539	0.07425373	0.08896463	0.40447321	0.01043458	-0.33806616	0.69794202	-0.38436651	3.40471216	0.63444597	0.06009833	-0.08128588	0.06242707
5073	50.72000000	0.12196080	0.19038356	-0.01520249	0.09058191	0.20471873	0.25990405	1.48360301	1.34860123	2.86610297	0.59561775	-0.30497155	0.79605265	0.08196794	0.10320712	0.42386179	-0.00590087	-0.36129293	0.66848605	-0.44560021	3.70442089	0.62350268	0.06739311	-0.06058672	0.07630938
5074	50.73000000	0.11053956	0.19839920	-0.01415782	0.09768276	0.20497027	0.25804817	1.66234459	1.53002294	2.94074339	0.36994508	-0.37924390	0.69939591	0.12145345	0.11976037	0.41519280	-0.03033372	-0.38397167	0.67490115	-0.49657807	3.96494367	0.60028304	0.04708029	-0.08444422	0.09816372
5075	50.74000000	0.10228579	0.19976842	-0.01745165	0.09688630	0.21485721	0.24345849	1.81300764	1.74003214	3.05624646	0.17939015	-0.41569804	0.58155230	0.06465357	0.12414852	0.38958001	-0.05380564	-0.38808135	0.71721972	-0.54355278	4.11034906	0.58387151	0.01017834	-0.08610881	0.14074982
5076	50.75000000	0.09139266	0.20410386	-0.02121452	0.10169351	0.23220314	0.25228070	1.97223621	1.96945329	3.22544874	0.01125003	-0.41496335	0.44208821	0.04638290	0.10468666	0.39777652	-0.08269637	-0.39624185	0.70731561	-0.59288932	4.11889995	0.59046049	-0.00835497	-0.07704296	0.16378217
5077	50.76000000	0.07194546	0.20631967	-0.01847117	0.10005163	0.25715798	0.22884186	2.07770001	2.14759223	3.43097313	-0.13860497	-0.39335335	0.29321961	0.02128481	0.11806816	0.43404587	-0.10822287	-0.38675381	0.71086965	-0.63428785	4.00685249	0.63835657	0.01249348	-0.07936733	0.17329598
5078	50.77000000	0.05971942	0.21567140	-0.02455602	0.08088451	0.27629089	0.22690219	2.01355298	2.33679253	3.55726044	-0.30183803	-0.36315522	0.16228259	-0.01852786	0.14006695	0.46203875	-0.07678021	-0.37097735	0.72185784	-0.68171226	3.84492378	0.71126952	0.02156595	-0.06368431	0.18385136
5079	50.78000000	0.02366173	0.22225877	-0.02528290	0.07366366	0.28688690	0.20858792	1.68932852	2.56649744	3.52095743	-0.45722250	-0.35781493	0.02950940	-0.01465954	0.14206418	0.46620731	-0.06302166	-0.35160554	0.70866215	-0.69835035	3.68083654	0.72422652	0.01090793	-0.07441299	0.20455390
5080	50.79000000	0.02498324	0.19671499	-0.03093094	0.07656305	0.28791117	0.17737714	1.02611283	2.66810485	3.65663927	-0.61538265	-0.36909657	-0.10563700	-0.01299011	0.12371722	0.47239089	-0.08093442	-0.34185274	0.68680461	-0.65410602	3.57415252	0.62246075	0.00347002	-0.08775963	0.22309975
